<?xml version="1.0" encoding="utf-8"?>
<svg version="1.1" xmlns:xlink="http://www.w3.org/1999/xlink" width="50px" height="50px" xmlns="http://www.w3.org/2000/svg">
  <g transform="matrix(1 0 0 1 -120 -205 )">
    <path d="M 50 25  C 50 38.8  38.8 50  25 50  C 11.2 50  0 38.8  0 25  C 0 11.2  11.2 0  25 0  C 38.8 0  50 11.2  50 25  Z M 46.6666666503906 25  C 46.6666666503906 13.0666666503907  36.9333333496094 3.3333333496094  25 3.3333333496094  C 13.0666666503906 3.3333333496094  3.3333333496094 13.0666666503907  3.3333333496094 25  C 3.3333333496094 36.9333333496093  13.0666666503906 46.6666666503906  25 46.6666666503906  C 36.9333333496094 46.6666666503906  46.6666666503906 36.9333333496093  46.6666666503906 25  Z M 37.3333333496093 26  C 38.2666666992188 26.6666666503906  39.0000000000001 25.9333333007814  39.0000000000001 25  C 39.0000000000001 24.0666666503907  38.2666666503906 23.3333333496094  37.3333333496093 24  L 26 24  L 26 12.6666666503905  C 26.6666666503906 11.7333333007812  25.9333333007812 10.9999999999999  25 10.9999999999999  C 24.0666666992188 10.9999999999999  23.3333333496094 11.7333333496094  24 12.6666666503905  L 24 25  C 23.3333333496094 25.9333333496093  24.0666666992188 26.6666666503906  25 26  L 37.3333333496093 26  Z " fill-rule="nonzero" fill="#7f7f7f" stroke="none" transform="matrix(1 0 0 1 120 205 )" />
  </g>
</svg>