<?xml version="1.0" encoding="utf-8"?>
<svg version="1.1" xmlns:xlink="http://www.w3.org/1999/xlink" width="75px" height="69px" xmlns="http://www.w3.org/2000/svg">
  <g transform="matrix(1 0 0 1 -70 -757 )">
    <path d="M 10.0285456730769 28.83984375  C 12.8680889423077 31.35546875  16.40625 33.0475260416667  20.6430288461538 33.916015625  C 18.4194711538462 29.064453125  17.3076923076923 23.5091145833333  17.3076923076923 18  L 5.76923076923077 18  L 5.76923076923077 21.5625  C 5.76923076923077 23.8984375  7.18900240384615 26.32421875  10.0285456730769 28.83984375  Z M 64.9714543269231 28.83984375  C 67.8109975961538 26.32421875  69.2307692307692 23.8984375  69.2307692307692 21.5625  L 69.2307692307692 18  L 57.6923076923077 18  C 57.6923076923077 23.5091145833333  56.5805288461538 29.064453125  54.3569711538462 33.916015625  C 58.59375 33.0475260416667  62.1319110576923 31.35546875  64.9714543269231 28.83984375  Z M 73.7379807692308 12.7578125  C 74.5793269230769 13.5963541666667  75 14.6145833333333  75 15.8125  L 75 21.5625  C 75 23.6888020833333  74.3765024038462 25.830078125  73.1295072115385 27.986328125  C 71.8825120192308 30.142578125  70.1998197115385 32.0891927083333  68.0814302884615 33.826171875  C 65.9630408653846 35.5631510416667  63.3638822115385 37.0231119791667  60.2839543269231 38.2060546875  C 57.2040264423077 39.3889973958333  53.9663461538462 40.0553385416667  50.5709134615385 40.205078125  C 49.3088942307692 41.822265625  47.8816105769231 43.2447916666667  46.2890625 44.47265625  C 45.1472355769231 45.4908854166667  44.3584735576923 46.5764973958333  43.9227764423077 47.7294921875  C 43.4870793269231 48.8824869791667  43.2692307692308 50.22265625  43.2692307692308 51.75  C 43.2692307692308 53.3671875  43.7274639423077 54.7298177083333  44.6439302884615 55.837890625  C 45.5603966346154 56.9459635416667  47.0252403846154 57.5  49.0384615384615 57.5  C 51.2920673076923 57.5  53.2977764423077 58.1813151041667  55.0555889423077 59.5439453125  C 56.8134014423077 60.9065755208333  57.6923076923077 62.62109375  57.6923076923077 64.6875  L 57.6923076923077 67.5625  C 57.6923076923077 67.9817708333333  57.5570913461538 68.326171875  57.2866586538462 68.595703125  C 57.0162259615385 68.865234375  56.6706730769231 69  56.25 69  L 18.75 69  C 18.3293269230769 69  17.9837740384615 68.865234375  17.7133413461538 68.595703125  C 17.4429086538462 68.326171875  17.3076923076923 67.9817708333333  17.3076923076923 67.5625  L 17.3076923076923 64.6875  C 17.3076923076923 62.62109375  18.1865985576923 60.9065755208333  19.9444110576923 59.5439453125  C 21.7022235576923 58.1813151041667  23.7079326923077 57.5  25.9615384615385 57.5  C 27.9747596153846 57.5  29.4396033653846 56.9459635416667  30.3560697115385 55.837890625  C 31.2725360576923 54.7298177083333  31.7307692307692 53.3671875  31.7307692307692 51.75  C 31.7307692307692 50.22265625  31.5129206730769 48.8824869791667  31.0772235576923 47.7294921875  C 30.6415264423077 46.5764973958333  29.8527644230769 45.4908854166667  28.7109375 44.47265625  C 27.1183894230769 43.2447916666667  25.6911057692308 41.822265625  24.4290865384615 40.205078125  C 21.0336538461539 40.0553385416667  17.7959735576923 39.3889973958333  14.7160456730769 38.2060546875  C 11.6361177884615 37.0231119791667  9.03695913461539 35.5631510416667  6.91856971153846 33.826171875  C 4.80018028846154 32.0891927083333  3.11748798076923 30.142578125  1.87049278846154 27.986328125  C 0.623497596153846 25.830078125  0 23.6888020833333  0 21.5625  L 0 15.8125  C 0 14.6145833333333  0.420673076923077 13.5963541666667  1.26201923076923 12.7578125  C 2.10336538461539 11.9192708333333  3.125 11.5  4.32692307692308 12  L 17.3076923076923 12  L 17.3076923076923 7.1875  C 17.3076923076923 5.2109375  18.0138221153846 3.51888020833333  19.4260817307692 2.111328125  C 20.8383413461539 0.70377604166666  22.5360576923077 0  24.5192307692308 0  L 50.4807692307692 0  C 52.4639423076923 0  54.1616586538462 0.70377604166666  55.5739182692308 2.111328125  C 56.9861778846154 3.51888020833333  57.6923076923077 5.2109375  57.6923076923077 7.1875  L 57.6923076923077 12  L 70.6730769230769 12  C 71.875 11.5  72.8966346153846 11.9192708333333  73.7379807692308 12.7578125  Z " fill-rule="nonzero" fill="#e0d006" stroke="none" transform="matrix(1 0 0 1 70 757 )" />
  </g>
</svg>